<svg fill="none" height="151" viewBox="0 0 150 151" width="150" xmlns="http://www.w3.org/2000/svg" xmlns:xlink="http://www.w3.org/1999/xlink"><clipPath id="a"><path d="m0 .5h150v150h-150z"/></clipPath><clipPath id="b"><path d="m0 0h78.4621v78.4621h-78.4621z" transform="matrix(.98570964 .16845325 -.16845325 .98570964 59.0488 61.6976)"/></clipPath><mask id="c" height="65" maskUnits="userSpaceOnUse" width="75" x="34" y="20"><path d="m84.1145 21.0979c.1338-.033.2777-.0127.4058.059 3.1127 1.7423 6.4731 3.216 9.6079 5.0094 3.116 1.7826 12.1468 17.3933 13.8578 20.3843.156.2715.065.5957-.195.7177l-16.7629 7.8488c-.3679.1722-.8141-.1618-.7779-.5825l.2044-2.3773-5.4279 31.2216c-.0406.2333-.2334.3955-.4702.3955h-40.7559c-.3446 0-.6248-.3338-.5651-.6732l5.3262-30.2761c.0407-.2312-.0782-.4757-.2908-.5981l-12.7855-7.3645c-.2919-.1681-.3935-.5429-.2069-.7933 2.0521-2.755 12.6258-16.7104 18.1753-19.3514.2378-.1132.4255-.188.5734-.2366.0028-.0009.0051-.0028.0064-.0054.0013-.0025.0004-.0033.0031-.0043.0854-.0312 5.3146-1.9447 8.953-3.3555.1193-.0463.2544-.0436.3831-.0021.7325.2365 3.5686.996 9.8167 1.0128 6.4031-.0172 10.052-.8129 10.925-1.0288z" fill="#fff" stroke="#2f2e0c" stroke-width=".5"/></mask><g clip-path="url(#a)"><path d="m0 0h150v150h-150z" fill="#fff" transform="translate(0 .5)"/><g stroke="#2f2e0c"><path d="m24.5828 65.4806c-.0834-.0548-.1939-.0544-.277.0008l-.0003.0002c-7.1663 4.769-10.9193 6.2332-14.2357 6.9284-.45229.0948-.7515.5348-.67767.9893 1.46687 9.0307 3.33647 14.924 5.41757 19.3121 1.9511 4.114 4.0847 6.896 6.2218 9.6826.1426.186.2853.372.4279.558.2666.349.7104.394 1.0592.291.3488-.102.697-.377.7756-.791.6087-3.2053 2.748-8.0467 5.9983-13.3221.168-.2726.1663-.6196.0084-.8915-4.4753-7.7088-5.6208-13.3326-5.6576-17.0138-.0369-3.6803 1.0341-5.4342 1.0162-5.4047l.0004-.0005c.005-.0084.0142-.0247.0219-.0468.0078-.0224.0173-.06.0127-.1067-.0053-.0537-.0259-.0946-.0474-.1237-.0161-.0222-.0351-.0409-.0559-.0558m-.0084-.0058c.0013.0011.0043.0034.0094.0071.0017.0013.0044.0032.0076.0058-.0032-.0028-.0061-.0052-.0086-.0071m-.0084-.0058c.0028.0018.0056.0038.0084.0058m-.0084-.0058c-.0026-.0022.0012 0 .0084.0058m-.3585.335c.0013.002.0026.004.0039.006-.0013-.002-.0026-.004-.0039-.006z" fill="#fff" stroke-linejoin="round" stroke-width=".5"/><path d="m37.4272 125.429 13.3512-33.5294" stroke-linecap="round" stroke-linejoin="round" stroke-width="1.2"/><path d="m75.0151 125.429-1.5269-33.5294" stroke-linecap="round" stroke-linejoin="round" stroke-width="1.2"/><path d="m56.1367 125.419 17.509-109.063" stroke-linecap="round" stroke-linejoin="round" stroke-width="1.2"/><path d="m42.6919 91.1451h39.5863" stroke-linecap="round" stroke-linejoin="round" stroke-width="1.2"/><path d="m45.3423 107.079h28.1753" stroke-linecap="round" stroke-linejoin="round" stroke-width="1.2"/><g mask="url(#c)" stroke-width=".5"><path d="m84.1125 21.0981c.1338-.0331.2777-.0128.4058.0589 3.1127 1.7423 6.4731 3.216 9.6079 5.0094 3.1159 1.7827 12.1468 17.3933 13.8578 20.3843.156.2716.065.5957-.195.7178l-16.7622 7.8487c-.3679.1722-.8141-.1618-.7779-.5825l.2044-2.3773-5.4271 31.2216c-.0406.2333-.2334.3955-.4702.3955h-40.755c-.3446 0-.6248-.3338-.5651-.6732l5.3253-30.2761c.0407-.2311-.0782-.4756-.2908-.5981l-12.7854-7.3644c-.292-.1682-.3936-.5429-.207-.7934 2.052-2.755 12.6252-16.7104 18.1745-19.3514.2378-.1131.4255-.188.5734-.2365.0028-.001.0051-.0029.0064-.0055.0013-.0025.0004-.0033.0031-.0043.0854-.0312 5.3144-1.9446 8.9527-3.3555.1193-.0462.2545-.0436.3832-.002.7325.2364 3.5685.996 9.8165 1.0127 6.4028-.0171 10.0517-.8129 10.9247-1.0287z" fill="#fff"/><path d="m90.5162 55.1564c-.0774-.6759.5521-2.3813 3.6891-3.7957 3.9211-1.768 6.4317-2.6213 8.1997-3.6752 1.769-1.0538 4.329-3.2297 4.63-2.166" stroke-linejoin="round"/><path d="m35.2148 43.9793c.1924-.7486 1.9964-.8266 4.1379.877 2.677 2.1295 4.1908 3.1107 5.5823 3.9777 1.3915.8671 4.2126 1.781 3.5572 2.3821" stroke-linejoin="round"/><g stroke-dasharray="1.79 1.79"><path d="m57.8597 36.5561.3032-1.7187h.25l.1081-.6132h.6078l.0435-.2462h1.7156l-.0434.2462h1.7157l.0434-.2462h1.7156l-.0434.2462h1.7157l.0434-.2462h1.7156l-.0434.2462h1.7157l.0434-.2462h1.7157l-.0435.2462h1.7157l.0434-.2462h1.7157l-.0435.2462h1.7157l.0434-.2462h1.7157l-.0435.2462h1.7157l.0434-.2462h1.7157l-.0434.2462h1.7156l.0434-.2462h1.7157l-.0434.2462h.6078l-.1082.6132h.25l-.3032 1.7187h-.25l-.3032 1.7188h.25l-.3032 1.7187h-.25l-.3031 1.7187h.25l-.3032 1.7188h-.25l-.3032 1.7187h.25l-.3032 1.7187h-.25l-.3032 1.7188h.25l-.3032 1.7187h-.25l-.3032 1.7187h.25l-.3032 1.7188h-.25l-.3032 1.7187h.25l-.3032 1.7188h-.25l-.3032 1.7187h.25l-.3032 1.7187h-.25l-.3031 1.7188h.25l-.3032 1.7187h-.25l-.3032 1.7187h.25l-.3032 1.7188h-.25l-.3032 1.7187h.25l-.3032 1.7187h-.25l-.3032 1.7188h.25l-.3032 1.7187h-.25l-.1082.6132h-.6078l-.0434.2462h-1.7157l.0435-.2462h-1.7157l-.0434.2462h-1.7157l.0435-.2462h-1.7157l-.0434.2462h-1.7157l.0434-.2462h-1.7156l-.0434.2462h-1.7157l.0434-.2462h-1.7156l-.0434.2462h-1.7157l.0434-.2462h-1.7156l-.0435.2462h-1.7156l.0434-.2462h-1.7156l-.0435.2462h-1.7156l.0434-.2462h-1.7156l-.0435.2462h-1.7156l.0434-.2462h-.6078l.1081-.6132h-.25l.3032-1.7187h.25l.3032-1.7188h-.25l.3032-1.7187h.25l.3032-1.7187h-.25l.3032-1.7188h.25l.3032-1.7187h-.25l.3032-1.7187h.25l.3032-1.7188h-.25l.3032-1.7187h.25l.3032-1.7188h-.25l.3032-1.7187h.25l.3031-1.7187h-.25l.3032-1.7188h.25l.3032-1.7187h-.25l.3032-1.7187h.25l.3032-1.7188h-.25l.3032-1.7187h.25l.3032-1.7187h-.25l.3032-1.7188h.25l.3032-1.7187h-.25l.3032-1.7187h.25l.3032-1.7188z" fill="#aeff6e"/><path d="m85.3906 34.1958-33.6564 40.7912"/><path d="m58.5332 34.0817 19.7731 40.95"/></g><path d="m75.2716 10.3286c5.5684.1398 9.3308 4.5665 8.4083 9.8837s-6.1818 9.5173-11.7501 9.3775c-5.5684-.1398-9.3309-4.5666-8.4083-9.8837.9225-5.3172 6.1818-9.5174 11.7501-9.3775z"/><path d="m94.9462 26.7877-5.1985 29.4932"/><path d="m54.1577 24.1385-5.872 30.2395"/></g><path d="m128.142 91.9702c.097.0241.201-.0124.262-.0932 5.716-7.6167 9.033-10.4106 12.232-12.3139.288-.1711.381-.5419.225-.8293-4.964-9.1088-9.139-14.5596-12.972-18.323-3.313-3.2528-6.368-5.2397-9.426-7.2294-.479-.3118-.959-.6235-1.439-.9403-.261-.1724-.56-.1033-.755.0428-.194.1456-.342.4089-.272.7032.792 3.3588.406 9.5792-1.17 16.8173-.049.2253.036.4593.207.6045 7.399 6.2638 10.622 11.6035 12 15.3594 1.371 3.7371.92 5.9203.923 5.908-.002.0099-.005.0279-.005.0507 0 .0239.003.0628.023.1056.024.0501.058.0821.088.1024.022.0146.045.0253.068.0323m.011.0029c-.002-.0007-.005-.0018-.011-.0035-.002-.0006-.005-.0015-.009-.0028.004.0013.007.0025.009.0034m.011.0029c-.004-.0009-.007-.0019-.011-.0029m.011.0029c.004.0014-.001.0004-.011-.0029m.227-.4357c-.002-.0012-.003-.0024-.005-.0035 0-.0001 0-.0001 0-.0001.002.0012.003.0023.005.0036zm.089.2465v-.0007z" fill="#fff" stroke-linejoin="round" stroke-width=".5"/><g clip-path="url(#b)" stroke-linejoin="round" stroke-width=".5"><path d="m107.624 81.311-46.6949 33.228 4.1261 3.54 9.6265 1.646-5.3069 9.294 4.1175 3.434 23.2434 3.972 6.4613-11.827 12.982 2.218-4.615-42.2229z" fill="#f1f1ed"/><path d="m65.3952 118.137 46.1838-33.4134 4.6 42.0924-12.982-2.219-6.4613 11.828-23.0675-3.942 6.4614-11.828z" fill="#aeff6e"/></g><path d="m61.7537 143.417 36.1058 5.876" stroke-width="1.2"/><path d="m93.8027 126.899-8.3409 17.102" stroke-width=".5"/><path d="m91.0664 118.624-8.3269 18.521" stroke-width=".5"/><path d="m24.8276 15.3441c.0228-.0012.041.0009.0509.0024-.0163-.0024 1.3184.2024 3.5452-.7459 2.2437-.9555 5.4071-3.0877 9.0109-7.80928.1363-.17855.365-.27494.5923-.23801 4.1657.67655 7.7479.75081 9.8483.2813.2941-.06574.5617.08558.7147.27446.1531.18905.2476.48901.0881.76347-.1011.17408-.2017.34805-.3023.52205-1.162 2.00921-2.3263 4.02271-4.3371 6.25651-2.1849 2.4272-5.3615 5.1072-10.6131 8.3477-.28.1728-.653.0965-.8393-.1784-1.2639-1.8645-3.1043-3.8012-7.8847-7.0179zm0 0c-.0239.0013-.0625.0068-.1043.0291m.1043-.0291-.1043.0291m0 0c-.0473.0252-.0771.0596-.0959.0904m.0959-.0904-.0959.0904m0 0c-.0139.0227-.0238.0466-.0298.0709m.0298-.0709-.0273.0628m-.0025.0081c.0007-.0024.0016-.0052.0025-.0081m-.0025.0081c-.0033.0114-.0041.0169-.0026.0117m.0026-.0117c-.0009.0039-.0018.0078-.0026.0117m.0051-.0198c-.0012.0043-.002.0076-.0025.0097-.0011.0049-.002.0082-.0026.0101m.0051-.0198.1013.276c-.0839-.0564-.1254-.1587-.1064-.2562m.4435.2008c.0031-.0041.0061-.0083.009-.0126h.0001c-.0019.0028-.0038.0055-.0058.0083-.0011.0014-.0022.0029-.0033.0043zm-.2358.0938h.0003z" fill="#fff" stroke-linejoin="round" stroke-width=".5"/></g></g></svg>