<svg fill="none" height="150" viewBox="0 0 150 150" width="150" xmlns="http://www.w3.org/2000/svg" xmlns:xlink="http://www.w3.org/1999/xlink"><mask id="a" height="74" maskUnits="userSpaceOnUse" width="74" x="70" y="46"><circle cx="36.6113" cy="36.6113" fill="#fff" r="36.3899" stroke="#2f2e0c" stroke-width=".442786" transform="matrix(1 0 -.121869 .992546 74.8984 46.9935)"/></mask><path d="m0 0h150v150h-150z" fill="#fff"/><g stroke="#2f2e0c"><path d="m0 0h57.8141v18.3682h-57.8141z" fill="#fff" stroke-width=".442786" transform="matrix(.909456 .415801 -.4698 .866919 85.0728 11.8019)"/><path d="m85.0444 12.5419 43.9426 38.758m8.107-14.9609-60.1572-8.8362" stroke-dasharray="1.77 1.77" stroke-width=".442786"/><path d="m26.0562 106.193 43.6392 34.46 46.7656-23.933-36.5333-17.9577z" fill="#2f2e0c" stroke-width=".442786"/><path d="m27.6817 123.893 19.7835 18.531 29.145-14.916-22.7682-11.191z" fill="#2f2e0c" stroke-width=".442786"/><path d="m0 0h79.4289v61.0858h-79.4289z" fill="#f1f1ed" stroke-width=".442786" transform="matrix(1 0 .121869 .992546 3.91309 30.8978)"/><path d="m4.14648 30.8156 86.02832 60.2601m-7.3991-60.2601-71.2302 60.2601" stroke-dasharray="1.77 1.77" stroke-width=".442786"/><g mask="url(#a)" stroke-width=".442786"><circle cx="36.6113" cy="36.6113" fill="#fff" r="36.3899" transform="matrix(1 0 -.121869 .992546 74.8984 46.9935)"/><circle cx="36.6113" cy="36.6113" fill="#fff" r="36.3899" transform="matrix(1 0 -.121869 .992546 74.8984 46.9935)"/><circle cx="36.6113" cy="36.6113" fill="#aeff6e" r="36.3899" transform="matrix(1 0 -.121869 .992546 71.356 46.9935)"/><circle cx="36.6113" cy="36.6113" r="36.3899" transform="matrix(1 0 -.121869 .992546 74.8984 46.9935)"/></g><path d="m106.574 66.8158-4.056 33.0321m-14.6118-16.5161h33.2798" stroke-width=".442786"/><path d="m76.1502 90.2997-58.3246 15.1573 2.7129 5.44 9.2946 5.533-7.952 7.209 2.7129 5.44 22.2724 13.258 10.4992-9.518 12.5342 7.461 8.9633-44.54z" fill="#fff" stroke-linejoin="round" stroke-width=".507692"/><path d="m20.5363 110.897 58.3251-15.1576-8.9634 44.5406-12.5343-7.461-10.4993 9.517-22.2726-13.257 10.4994-9.518z" fill="#d1d1c7" stroke-linejoin="round" stroke-width=".507692"/><path d="m79.0386 110.125-.1148-14.2838-2.2783 11.0068z" fill="#2f2e0c" stroke-linejoin="round" stroke-width=".531343"/></g></svg>